<?xml version="1.0" standalone="no"?>
<!DOCTYPE svg PUBLIC "-//W3C//DTD SVG 20010904//EN"
 "http://www.w3.org/TR/2001/REC-SVG-20010904/DTD/svg10.dtd">
<svg version="1.0" xmlns="http://www.w3.org/2000/svg"
 width="530.000000pt" height="530.000000pt" viewBox="0 0 530.000000 530.000000"
 preserveAspectRatio="xMidYMid meet">
<metadata>
Created by potrace 1.14, written by Peter Selinger 2001-2017
</metadata>
<g transform="translate(0.000000,530.000000) scale(0.100000,-0.100000)"
fill="#000000" stroke="none">
<path d="M2760 4605 c0 -5 -22 -9 -49 -9 -28 1 -68 -2 -90 -6 -25 -4 -44 -3
-52 4 -9 8 -10 8 -5 -1 4 -7 3 -13 -3 -13 -5 0 -12 6 -14 13 -3 6 -6 8 -6 2
-1 -5 -19 -9 -41 -9 -22 1 -40 -1 -40 -6 0 -4 -27 -7 -60 -6 -33 0 -60 -3 -60
-8 0 -4 -6 -6 -14 -3 -7 3 -19 0 -25 -6 -8 -8 -11 -7 -11 3 0 13 -2 13 -10 0
-5 -8 -10 -10 -10 -5 0 6 -5 3 -10 -5 -8 -12 -10 -12 -10 -1 0 11 -4 11 -18
-2 -12 -11 -43 -19 -87 -22 -49 -3 -71 -10 -81 -22 -11 -15 -13 -15 -14 -3 0
12 -4 10 -15 -4 -8 -11 -15 -17 -15 -13 0 4 -11 0 -25 -9 -14 -9 -25 -13 -25
-9 0 4 -7 2 -15 -5 -8 -6 -18 -9 -24 -6 -5 4 -12 -3 -16 -14 -3 -11 -11 -20
-16 -20 -6 0 -7 6 -3 13 4 6 -2 4 -13 -5 -11 -10 -24 -18 -30 -18 -6 0 -14 -6
-16 -12 -4 -10 -6 -10 -6 -1 -1 9 -8 8 -28 -2 -15 -8 -30 -12 -35 -9 -4 3 -11
-2 -14 -10 -3 -9 -13 -16 -21 -16 -8 0 -11 -4 -8 -10 3 -5 1 -10 -5 -10 -6 0
-8 -5 -5 -11 4 -6 1 -9 -6 -8 -21 4 -59 -11 -59 -23 0 -6 -3 -8 -6 -5 -4 3
-15 -5 -26 -18 -11 -14 -23 -23 -28 -20 -4 3 -11 -2 -14 -11 -3 -8 -10 -12
-16 -9 -5 3 -10 0 -10 -8 0 -7 -12 -20 -27 -28 -15 -8 -44 -31 -64 -51 -20
-21 -44 -38 -53 -38 -10 0 -14 -4 -11 -10 3 -5 1 -10 -5 -10 -6 0 -8 -5 -4
-12 5 -8 2 -9 -9 -5 -11 4 -17 1 -17 -8 0 -8 -5 -15 -11 -15 -14 0 -38 -30
-39 -47 0 -6 10 -15 21 -18 17 -6 19 -9 8 -16 -8 -5 -10 -9 -6 -9 5 0 -13 -21
-40 -47 -26 -25 -41 -43 -33 -39 8 4 4 -2 -10 -13 -14 -11 -20 -21 -15 -21 6
-1 2 -5 -8 -9 -10 -4 -19 -11 -20 -16 -1 -10 -19 -34 -44 -60 -7 -8 -13 -19
-13 -25 0 -6 -7 -13 -15 -16 -8 -4 -12 -10 -9 -15 3 -5 0 -9 -5 -9 -6 0 -11
-6 -11 -13 0 -7 -9 -23 -19 -34 -11 -12 -17 -24 -14 -27 4 -3 1 -6 -5 -6 -7 0
-12 -6 -12 -14 0 -7 -9 -25 -20 -39 -11 -14 -20 -32 -20 -41 0 -9 -5 -16 -11
-16 -5 0 -8 -4 -4 -9 3 -5 1 -12 -5 -16 -6 -4 -8 -10 -5 -15 3 -4 -2 -11 -11
-14 -8 -3 -12 -10 -9 -16 3 -5 1 -10 -5 -10 -6 0 -9 -4 -5 -9 3 -6 -4 -26 -15
-46 -11 -20 -18 -40 -15 -46 4 -5 2 -9 -4 -9 -9 0 -27 -56 -23 -72 1 -5 -3 -8
-9 -8 -6 0 -9 -9 -6 -19 3 -12 -1 -22 -11 -26 -13 -5 -14 -8 -3 -14 9 -6 10
-11 2 -15 -6 -4 -11 -18 -11 -32 0 -13 -4 -24 -9 -24 -6 0 -8 -8 -6 -19 2 -10
-2 -29 -9 -43 -7 -13 -11 -29 -8 -36 2 -7 -1 -19 -8 -26 -8 -10 -8 -16 0 -21
7 -4 8 -11 2 -18 -5 -7 -8 -22 -7 -35 1 -13 -2 -25 -7 -28 -5 -3 -3 -13 4 -22
9 -11 10 -14 1 -8 -9 5 -12 -1 -9 -23 2 -17 1 -33 -2 -36 -3 -3 -5 -31 -4 -62
0 -34 -4 -61 -11 -65 -9 -6 -8 -8 1 -8 9 0 11 -7 7 -21 -4 -12 -3 -19 1 -16 5
3 10 -34 10 -82 2 -109 11 -197 24 -221 7 -13 7 -21 -1 -26 -6 -3 -7 -9 -3
-13 12 -8 34 -72 23 -65 -14 8 -11 -3 7 -20 8 -9 11 -16 6 -16 -6 0 -8 -9 -5
-20 3 -11 8 -20 12 -20 4 0 8 -12 9 -27 1 -15 8 -30 15 -35 9 -6 9 -8 -1 -8
-10 0 -9 -4 3 -16 9 -9 14 -23 11 -30 -3 -8 -2 -14 2 -14 4 0 14 -20 21 -46 7
-25 19 -51 25 -57 11 -13 18 -32 19 -54 0 -7 4 -13 9 -13 5 0 6 -4 3 -10 -3
-5 -1 -10 4 -10 6 0 11 -7 11 -16 0 -8 4 -13 8 -10 4 2 9 -5 9 -16 1 -12 8
-25 15 -29 7 -5 9 -9 3 -9 -5 0 -2 -7 8 -14 10 -8 19 -23 20 -34 0 -11 4 -19
8 -17 3 3 14 -13 24 -35 10 -22 22 -40 27 -40 5 0 7 -4 3 -9 -3 -5 4 -12 15
-16 11 -4 18 -10 15 -15 -5 -8 15 -37 52 -75 7 -7 9 -15 6 -19 -4 -3 1 -6 10
-6 10 0 17 -5 17 -10 0 -6 11 -22 25 -35 13 -14 22 -25 20 -25 -3 0 9 -14 27
-30 17 -16 35 -30 40 -30 5 0 7 -4 4 -9 -3 -5 1 -14 9 -21 8 -7 15 -9 15 -6 0
4 6 1 14 -6 8 -7 12 -16 9 -20 -2 -5 0 -8 6 -8 16 0 61 -46 53 -55 -4 -4 3 -5
16 -2 12 3 22 1 22 -5 0 -5 7 -16 15 -24 8 -9 15 -13 15 -10 0 3 12 -6 27 -20
14 -13 28 -22 30 -20 2 2 16 -7 30 -20 14 -13 32 -24 40 -24 8 0 12 -4 9 -9
-5 -8 19 -19 35 -17 4 1 17 -10 29 -24 12 -14 19 -19 15 -13 -4 9 -1 11 9 7 9
-3 16 -10 16 -15 0 -5 6 -9 14 -9 7 0 19 -7 26 -15 7 -8 16 -13 20 -10 4 3 24
-6 43 -19 19 -13 38 -22 41 -19 2 3 19 -5 37 -18 18 -13 30 -18 26 -12 -4 6
12 2 35 -9 24 -12 52 -22 63 -22 11 -1 19 -7 18 -12 -1 -6 5 -11 13 -11 8 0
14 5 14 11 0 6 4 5 9 -3 5 -8 16 -11 26 -8 9 4 14 3 11 -2 -5 -7 20 -14 82
-23 6 -1 12 -5 12 -9 0 -4 10 -5 23 -1 19 5 20 3 9 -10 -13 -17 -28 -18 -49
-5 -6 4 -15 2 -19 -4 -4 -8 -3 -9 4 -5 7 4 12 5 12 1 0 -12 -46 -22 -67 -14
-13 5 -25 4 -28 -1 -4 -6 6 -15 21 -20 20 -8 29 -8 35 1 4 8 10 6 18 -7 8 -14
11 -15 11 -4 0 12 2 13 9 1 6 -9 18 -12 37 -7 15 4 24 10 18 14 -16 12 -14 29
6 47 13 12 20 14 20 6 0 -8 7 -10 19 -6 11 3 23 1 26 -6 6 -8 10 -7 16 2 6 10
9 10 9 2 0 -6 9 -10 20 -8 11 2 23 -1 26 -7 5 -7 2 -8 -6 -3 -9 5 -11 4 -6 -4
4 -6 13 -8 19 -4 17 11 67 10 67 0 0 -5 7 -4 15 3 8 7 15 8 15 3 0 -6 23 -10
51 -9 27 1 52 -2 55 -6 3 -4 14 -4 24 2 20 11 36 -2 25 -20 -7 -11 -75 -9 -75
3 0 12 -47 8 -58 -6 -7 -8 -6 -18 4 -31 8 -11 14 -14 14 -7 0 7 5 9 13 4 15
-10 52 -14 100 -13 6 1 27 -1 44 -3 18 -2 35 2 37 7 2 6 5 5 5 -2 1 -10 5 -10
17 2 8 9 20 14 25 11 5 -4 9 -2 9 3 0 12 43 10 53 -3 4 -7 10 -6 15 1 4 6 17
10 30 9 12 -1 22 3 22 9 0 7 4 6 8 -2 6 -9 13 -8 28 6 17 16 40 20 69 12 6 -2
24 3 40 10 17 7 50 14 75 16 59 3 71 6 93 26 21 18 60 31 51 17 -3 -5 6 -5 20
1 14 5 26 6 26 2 1 -4 9 3 19 15 10 12 21 19 25 16 3 -4 6 -1 6 5 0 6 7 9 15
6 8 -4 15 -2 15 4 0 5 9 12 20 15 11 3 20 0 20 -6 0 -9 2 -9 8 0 4 6 20 10 35
9 15 -2 30 1 33 6 3 4 10 6 15 3 5 -4 9 -1 9 5 0 6 11 15 25 22 13 6 22 16 18
21 -4 7 0 8 11 4 14 -6 17 -3 12 8 -3 9 -2 13 4 10 12 -7 72 30 62 39 -4 4 -2
7 3 6 23 -5 46 1 40 10 -3 5 1 10 9 10 9 0 16 5 16 12 0 6 3 9 6 6 5 -6 13 -1
66 47 13 11 26 19 30 18 5 -2 8 5 8 15 0 9 16 30 35 45 19 15 35 35 35 43 0 8
4 13 9 9 5 -3 17 5 25 17 9 12 18 19 22 15 9 -9 33 16 26 28 -3 6 3 3 13 -5
10 -8 16 -10 12 -3 -7 11 39 67 55 68 9 0 58 58 58 70 0 6 12 21 25 34 14 13
25 29 25 36 0 7 7 15 15 19 9 3 12 12 8 22 -4 11 -2 15 4 11 6 -4 14 4 17 19
4 15 10 24 13 20 7 -7 37 32 40 54 1 8 7 16 13 18 5 2 8 8 5 12 -3 5 2 18 12
30 10 11 21 30 24 43 3 12 11 21 17 19 7 -1 12 5 12 14 0 9 7 28 15 42 41 75
120 282 130 344 3 18 8 45 11 60 3 15 7 42 10 60 2 18 6 50 8 72 3 21 10 52
15 70 15 44 18 273 4 287 -7 7 -7 23 0 50 9 37 4 90 -18 199 -3 14 -8 52 -11
85 -3 34 -12 68 -21 78 -9 9 -17 32 -19 50 -1 19 -8 47 -16 63 -8 16 -20 49
-27 74 -7 25 -18 59 -25 75 -6 17 -11 32 -12 35 -1 9 -39 85 -45 90 -6 5 -19
36 -18 45 0 3 -7 13 -16 21 -8 9 -15 22 -15 30 0 8 -4 12 -10 9 -5 -3 -10 3
-10 13 0 11 -7 25 -15 32 -8 7 -12 16 -9 21 3 5 1 9 -3 9 -5 0 -19 18 -33 40
-14 22 -27 40 -31 40 -3 0 -6 6 -6 13 0 16 -44 77 -55 77 -5 0 -6 5 -3 10 3 6
1 10 -6 10 -7 0 -10 3 -7 6 8 7 -55 72 -64 67 -5 -2 -8 1 -8 7 0 6 -22 34 -50
61 -27 27 -50 51 -50 54 0 3 0 10 0 17 0 6 -3 9 -6 5 -3 -3 -15 3 -27 14 -11
10 -27 19 -34 19 -7 0 -13 8 -13 17 0 9 -3 13 -7 10 -3 -4 -13 2 -20 13 -8 11
-18 18 -22 15 -5 -2 -20 6 -34 19 -14 13 -29 21 -33 17 -4 -3 -4 2 -1 12 6 15
-3 22 -25 18 -5 0 -8 4 -8 9 0 6 -5 10 -10 10 -11 0 -24 10 -61 43 -10 9 -19
13 -19 7 0 -5 -5 -10 -11 -10 -5 0 -8 4 -4 9 3 6 -4 15 -15 21 -11 6 -20 8
-20 4 0 -4 -8 2 -17 12 -10 11 -26 18 -35 16 -12 -2 -18 3 -18 13 0 9 -4 13
-10 10 -5 -3 -10 -1 -10 5 0 6 -4 9 -9 6 -5 -3 -12 1 -15 10 -3 8 -11 12 -16
9 -6 -4 -17 -1 -25 5 -8 7 -15 9 -15 4 0 -5 -7 0 -15 10 -8 11 -15 16 -15 12
0 -5 -7 -3 -15 4 -8 6 -18 9 -24 6 -5 -3 -11 -2 -13 4 -2 6 -14 12 -27 15 -14
2 -28 10 -33 17 -4 7 -8 9 -8 3 0 -5 -5 -3 -10 5 -9 13 -10 13 -10 0 0 -13 -2
-13 -9 -1 -5 8 -24 16 -42 18 -18 2 -37 9 -41 16 -4 6 -8 8 -8 3 0 -5 -6 -3
-13 3 -8 6 -17 8 -20 4 -4 -3 -7 -2 -7 3 0 5 -8 10 -17 11 -10 0 -38 2 -63 3
-25 2 -49 6 -55 10 -15 11 -65 18 -65 10 0 -4 -11 -5 -25 -2 -14 2 -23 8 -20
12 2 4 -17 8 -43 8 -75 3 -97 6 -104 17 -5 7 -8 7 -8 0z"/>
<path d="M1142 3843 c-10 -10 -10 -13 0 -13 9 0 9 -3 -2 -10 -12 -8 -9 -9 11
-8 20 2 26 7 25 23 -1 25 -16 28 -34 8z"/>
<path d="M1076 1524 c-8 -22 -8 -26 4 -19 6 3 10 -2 10 -11 0 -16 1 -16 16 2
8 10 12 13 8 5 -5 -9 -3 -12 5 -7 14 9 7 22 -19 36 -13 7 -19 6 -24 -6z"/>
<path d="M1143 1435 c0 -14 4 -25 9 -25 5 0 6 -5 3 -10 -4 -6 -1 -9 6 -8 7 2
18 -8 25 -21 17 -32 34 -41 55 -28 26 16 8 41 -41 56 -22 6 -39 15 -36 19 2 4
-2 15 -9 25 -11 16 -12 15 -12 -8z"/>
<path d="M1309 1242 c6 -11 7 -23 3 -27 -4 -3 -2 -6 3 -5 20 4 36 0 31 -9 -3
-5 3 -11 14 -14 26 -7 21 14 -8 34 -13 9 -23 20 -22 25 0 5 -6 11 -15 12 -14
3 -15 0 -6 -16z"/>
<path d="M1843 879 c14 -8 22 -8 30 0 8 8 3 11 -18 11 -26 -1 -28 -2 -12 -11z"/>
<path d="M2554 744 c-18 -14 -18 -15 4 -4 12 6 22 13 22 15 0 8 -5 6 -26 -11z"/>
</g>
</svg>
